<?xml version="1.0" standalone="no"?>
<!DOCTYPE svg PUBLIC "-//W3C//DTD SVG 20010904//EN"
 "http://www.w3.org/TR/2001/REC-SVG-20010904/DTD/svg10.dtd">
<svg version="1.0" xmlns="http://www.w3.org/2000/svg"
 width="754.000000pt" height="754.000000pt" viewBox="0 0 754.000000 754.000000"
 preserveAspectRatio="xMidYMid meet">
<metadata>
Created by potrace 1.14, written by Peter Selinger 2001-2017
</metadata>
<g transform="translate(0.000000,754.000000) scale(0.100000,-0.100000)"
fill="#000000" stroke="none">
<path d="M3605 7525 c-187 -34 -372 -143 -506 -298 -98 -113 -197 -318 -170
-351 11 -13 18 -13 59 0 83 25 285 72 342 79 30 4 57 8 60 10 32 19 531 28
678 12 99 -11 296 -51 412 -83 52 -15 108 -29 124 -32 29 -5 29 -4 23 34 -10
62 -102 236 -168 318 -74 92 -113 126 -146 126 -29 0 -174 -66 -236 -107 -23
-16 -49 -33 -57 -38 -33 -19 100 116 163 165 25 20 38 60 19 60 -19 0 -181
-59 -232 -85 -30 -15 -81 -45 -113 -67 -33 -22 -61 -37 -64 -35 -10 11 149
155 211 191 44 26 66 44 64 55 -9 45 -308 74 -463 46z"/>
<path d="M3605 6832 c-62 -4 -343 -51 -410 -67 -115 -29 -280 -88 -380 -135
-222 -105 -254 -121 -265 -135 -12 -14 -15 -92 -6 -170 2 -22 8 -76 11 -120 4
-44 8 -82 10 -85 2 -3 6 -38 10 -78 3 -41 8 -83 11 -95 2 -12 6 -42 9 -67 18
-149 93 -547 141 -750 136 -569 383 -1246 659 -1803 83 -166 83 -168 62 -181
-12 -7 -54 -31 -93 -54 -124 -72 -264 -198 -248 -224 7 -11 32 -4 99 27 97 44
311 95 402 95 45 0 97 25 127 61 l24 28 44 -34 c47 -39 83 -51 173 -60 102
-11 236 -45 338 -88 107 -44 136 -42 101 7 -27 37 -204 171 -274 206 -32 16
-62 34 -65 41 -4 6 17 59 45 117 237 482 428 964 571 1439 39 130 132 488 143
547 3 16 10 52 16 80 6 28 12 60 14 71 3 11 11 52 19 90 9 39 18 86 21 105 3
19 14 89 25 155 11 66 23 140 26 165 7 58 13 106 19 150 3 19 8 71 11 115 4
44 9 89 11 100 2 11 5 60 6 109 2 109 8 103 -187 196 -252 122 -459 183 -755
224 -19 2 -56 8 -82 11 -48 7 -314 12 -383 7z m-279 -459 c-8 -32 -17 -83 -21
-113 -3 -30 -8 -72 -11 -93 -3 -21 -7 -82 -9 -137 -3 -76 0 -101 11 -111 28
-23 41 -2 59 92 23 127 75 257 149 374 29 45 33 31 11 -41 -37 -125 -68 -461
-46 -501 18 -35 176 -70 301 -67 168 3 278 29 400 93 176 92 283 195 378 361
27 46 36 52 34 20 0 -3 -3 -46 -6 -95 -4 -50 -9 -103 -11 -120 -2 -16 -7 -59
-10 -95 -3 -36 -8 -83 -11 -105 -10 -81 -13 -111 -19 -165 -3 -30 -8 -71 -10
-90 -3 -19 -7 -60 -10 -90 -3 -30 -7 -66 -10 -80 -2 -14 -7 -45 -10 -70 -3
-25 -10 -70 -15 -100 -5 -30 -12 -73 -15 -95 -10 -69 -15 -99 -20 -125 -5 -27
-21 -115 -30 -168 -3 -18 -12 -65 -21 -105 -8 -39 -17 -88 -20 -107 -3 -19
-10 -53 -16 -75 -5 -22 -12 -51 -15 -65 -53 -293 -239 -884 -365 -1161 -19
-41 -40 -88 -46 -104 -8 -19 -20 -31 -34 -32 -19 -2 -20 2 -15 55 3 31 10 89
16 127 5 39 12 93 15 120 15 134 25 213 31 255 2 19 7 64 10 100 3 36 8 81 10
100 8 75 15 148 20 215 7 98 15 202 21 255 17 173 23 237 29 340 3 47 8 123
11 169 10 147 13 192 19 396 4 110 8 218 9 240 4 62 -6 75 -51 64 -85 -20
-124 -24 -258 -23 -94 0 -159 6 -197 16 -49 14 -59 14 -69 2 -10 -13 -8 -146
6 -389 2 -27 6 -111 9 -185 4 -74 9 -148 10 -165 2 -16 7 -68 10 -115 4 -47 9
-98 11 -115 2 -16 6 -77 10 -135 3 -58 8 -116 10 -130 2 -14 6 -59 10 -100 3
-41 8 -95 10 -120 2 -25 7 -81 10 -125 6 -75 8 -96 20 -192 2 -21 7 -65 10
-98 3 -33 8 -71 10 -85 2 -14 6 -54 10 -90 4 -36 8 -76 10 -90 2 -14 6 -50 9
-80 6 -55 14 -109 22 -163 5 -33 -7 -59 -22 -49 -25 16 -134 267 -209 482 -34
99 -113 347 -120 380 -2 8 -31 123 -64 255 -33 132 -63 258 -67 280 -3 22 -8
43 -9 46 -2 3 -9 32 -14 65 -6 32 -20 111 -31 174 -11 63 -22 126 -24 140 -2
14 -9 52 -15 85 -16 89 -20 117 -26 160 -9 71 -26 200 -30 225 -11 70 -19 143
-30 265 -4 39 -9 84 -11 100 -7 40 -13 108 -29 340 l-6 80 29 -51 c41 -73 70
-114 110 -153 37 -37 46 -34 56 23 13 74 83 225 140 304 37 52 42 44 22 -35z"/>
<path d="M2253 6290 c-121 -73 -445 -447 -549 -631 -31 -57 -66 -120 -77 -139
-27 -48 -96 -206 -112 -255 -42 -131 -76 -241 -79 -259 -2 -12 -14 -68 -26
-125 -33 -161 -35 -190 -35 -441 0 -230 7 -343 25 -424 5 -23 11 -52 14 -66
52 -275 187 -601 349 -848 182 -274 423 -518 680 -686 165 -107 220 -126 212
-74 -2 13 -6 46 -9 73 -3 28 -8 61 -10 75 -3 14 -10 61 -16 105 -15 103 -17
113 -26 126 -6 10 -80 8 -154 -6 -14 -2 -77 -11 -140 -20 -133 -18 -137 -17
-134 61 3 77 13 243 20 314 4 49 2 69 -8 77 -15 12 -72 20 -208 29 -52 4 -108
8 -125 9 -16 2 -41 4 -55 4 -55 3 -54 7 40 242 73 179 89 228 81 245 -7 16
-59 41 -203 98 -106 42 -198 76 -204 76 -6 0 -17 6 -23 14 -13 16 -8 23 134
187 208 239 212 245 202 272 -3 8 -50 52 -104 97 -54 45 -118 101 -143 124
-25 23 -68 63 -97 88 -47 42 -50 47 -35 61 9 8 22 16 27 18 55 21 478 255 485
269 8 14 -19 76 -126 290 -104 210 -133 275 -122 281 7 5 33 9 58 10 25 0 54
2 65 4 11 2 43 7 70 10 28 3 59 7 71 9 12 2 57 7 100 11 77 6 117 10 199 21
107 14 115 17 117 50 1 16 -16 134 -27 194 -8 41 -31 244 -41 350 -8 94 -18
107 -61 80z"/>
<path d="M5257 6293 c-8 -15 -17 -62 -22 -119 -5 -52 -19 -171 -30 -244 -2
-14 -6 -52 -10 -85 -4 -32 -9 -68 -11 -79 -11 -60 -14 -99 -9 -115 7 -24 32
-29 218 -46 37 -4 76 -8 85 -9 9 -2 53 -7 97 -12 44 -4 82 -8 85 -9 12 -4 176
-19 183 -17 26 7 3 -52 -113 -286 -71 -145 -130 -271 -130 -281 0 -18 52 -50
245 -151 223 -117 285 -152 285 -160 0 -10 -176 -166 -312 -279 -43 -35 -80
-72 -83 -82 -8 -23 -3 -30 107 -155 165 -188 238 -277 238 -289 0 -7 -28 -23
-62 -35 -35 -13 -81 -31 -103 -41 -22 -10 -91 -38 -154 -62 -63 -24 -117 -51
-121 -58 -4 -8 29 -106 81 -239 70 -179 85 -228 75 -238 -7 -7 -47 -15 -92
-17 -237 -15 -316 -24 -331 -37 -7 -5 -10 -26 -8 -46 5 -49 17 -252 20 -327 4
-92 2 -95 -53 -89 -26 3 -58 7 -72 8 -14 2 -82 12 -153 22 -111 16 -129 16
-142 4 -15 -16 -17 -23 -45 -212 -11 -70 -22 -138 -25 -151 -8 -32 8 -51 37
-44 47 12 312 189 391 260 19 18 71 66 116 107 46 41 113 110 149 155 37 44
77 91 90 105 44 47 170 245 231 360 112 214 214 513 245 720 3 19 8 46 10 60
14 79 18 131 20 275 3 170 -6 344 -24 429 -5 28 -12 69 -16 91 -33 229 -178
607 -313 815 -50 77 -158 228 -172 240 -3 3 -13 16 -22 29 -22 32 -197 212
-277 284 -58 52 -92 69 -103 50z"/>
<path d="M2012 5463 c-131 -64 -89 -253 59 -259 85 -4 141 50 141 135 0 107
-104 171 -200 124z"/>
<path d="M5411 5464 c-41 -17 -71 -68 -71 -122 0 -74 42 -125 110 -137 146
-25 227 150 114 243 -40 33 -99 39 -153 16z"/>
<path d="M1765 4756 c-96 -43 -105 -174 -16 -224 94 -53 191 2 193 108 1 95
-90 154 -177 116z"/>
<path d="M5681 4758 c-29 -10 -65 -64 -69 -101 -10 -104 108 -180 196 -127 34
21 62 71 62 111 0 84 -104 149 -189 117z"/>
<path d="M1786 4069 c-55 -15 -96 -72 -89 -123 6 -43 30 -73 78 -96 44 -21 44
-21 88 -2 135 60 66 261 -77 221z"/>
<path d="M5696 4065 c-20 -7 -39 -15 -40 -17 -64 -85 -40 -182 51 -205 56 -14
99 4 129 52 37 61 15 141 -44 163 -52 19 -58 20 -96 7z"/>
<path d="M1973 3460 c-50 -20 -72 -99 -42 -150 49 -80 166 -67 195 21 31 92
-58 167 -153 129z"/>
<path d="M5460 3443 c-39 -35 -47 -80 -24 -129 40 -84 151 -78 197 12 13 25
13 34 1 69 -7 22 -14 41 -14 41 0 1 -15 9 -34 18 -51 24 -91 20 -126 -11z"/>
<path d="M2343 2998 c-49 -13 -76 -54 -70 -107 6 -54 32 -81 83 -87 99 -12
153 106 80 175 -28 26 -51 31 -93 19z"/>
<path d="M5165 3003 c-114 -29 -106 -184 11 -200 35 -4 46 -1 73 23 21 19 34
42 38 67 5 34 2 41 -36 77 -42 40 -48 42 -86 33z"/>
<path d="M3599 2945 c-2 -2 -24 -6 -49 -10 -41 -6 -101 -17 -155 -29 -180 -38
-383 -163 -480 -296 -70 -96 -141 -267 -133 -321 4 -32 22 -31 133 4 98 30
226 62 290 71 23 4 50 8 62 10 12 3 43 8 70 12 26 3 57 8 68 10 66 12 382 20
551 14 191 -7 522 -66 704 -125 112 -36 120 -29 91 88 -29 113 -88 213 -179
304 -133 135 -352 233 -572 258 -30 3 -56 8 -59 10 -12 13 -46 -26 -101 -115
-34 -55 -66 -100 -71 -100 -5 0 -12 7 -16 17 -8 21 -61 109 -91 151 -22 31
-55 56 -63 47z"/>
<path d="M2406 1877 c-12 -8 -25 -50 -41 -133 -13 -66 -27 -133 -30 -149 -34
-169 -33 -175 24 -175 38 0 40 1 55 48 17 54 76 352 76 387 0 34 -49 47 -84
22z"/>
<path d="M2695 1874 c-121 -41 -196 -153 -196 -292 0 -57 3 -69 29 -101 31
-38 112 -71 162 -66 14 1 35 3 48 4 31 1 72 44 72 75 0 34 -11 38 -63 24 -114
-30 -166 63 -105 190 28 60 68 82 144 82 68 0 82 9 89 59 3 27 0 31 -28 36
-45 7 -114 2 -152 -11z"/>
<path d="M3049 1871 c-71 -27 -116 -69 -150 -137 -36 -72 -48 -162 -29 -218 6
-21 27 -48 47 -64 32 -23 46 -27 115 -29 71 -2 127 10 129 26 0 3 3 18 5 32 6
36 -16 53 -49 38 -34 -15 -92 -4 -117 23 -29 32 -27 101 6 166 14 29 36 58 47
65 12 6 56 14 97 17 74 5 74 5 84 38 6 22 6 36 -2 44 -19 19 -132 18 -183 -1z"/>
<path d="M3435 1882 c-44 -9 -45 -15 -44 -227 1 -111 5 -208 9 -215 8 -13 76
-17 88 -5 8 7 10 32 11 150 l1 80 31 -52 c16 -29 43 -66 59 -83 39 -42 65 -30
115 53 22 37 43 66 46 67 3 0 5 -45 4 -100 -3 -121 3 -134 63 -124 28 4 42 12
43 23 1 9 2 105 3 214 1 205 -1 217 -41 219 -51 4 -69 -11 -119 -99 -27 -48
-52 -96 -56 -106 -15 -36 -26 -23 -118 144 -32 57 -51 69 -95 61z"/>
<path d="M3970 1882 c-14 -2 -29 -8 -35 -13 -5 -5 -10 -99 -11 -219 -2 -186 0
-211 15 -218 9 -4 80 -7 159 -7 152 1 166 5 157 50 -2 11 -4 26 -4 33 -1 9
-30 12 -110 12 -100 0 -109 2 -114 20 -12 46 2 60 62 61 96 1 129 4 136 11 11
11 8 70 -4 77 -7 4 -51 8 -98 9 -49 1 -90 7 -93 12 -6 9 -6 34 -1 73 1 4 45 7
99 7 107 0 122 6 122 52 0 21 -6 31 -24 38 -24 9 -205 10 -256 2z"/>
<path d="M4322 1882 c-9 -3 -12 -56 -12 -222 0 -230 2 -238 47 -234 52 4 52 5
55 141 l3 128 85 -122 c99 -142 129 -164 188 -142 l23 9 -3 214 c-2 118 -7
218 -11 222 -10 10 -74 10 -84 0 -4 -4 -9 -53 -10 -109 -2 -138 -2 -137 -10
-137 -5 0 -45 54 -91 120 -47 67 -93 122 -105 126 -27 9 -58 12 -75 6z"/>
<path d="M4798 1883 c-22 -6 -28 -23 -34 -103 -4 -66 -4 -68 21 -74 42 -11 62
8 76 71 22 103 8 125 -63 106z"/>
<path d="M5005 1877 c-16 -7 -37 -16 -46 -22 -49 -32 -64 -115 -30 -171 18
-29 79 -66 132 -79 42 -11 72 -40 65 -62 -9 -29 -55 -33 -113 -11 -68 26 -79
23 -96 -19 -19 -48 -11 -58 57 -78 126 -37 214 -13 254 67 20 40 22 52 13 85
-16 60 -41 78 -193 141 -29 12 -34 27 -19 51 12 18 61 17 100 -3 45 -24 68
-20 86 13 8 17 12 36 9 44 -15 39 -157 68 -219 44z"/>
<path d="M750 1293 c-105 -36 -162 -101 -175 -197 -10 -74 10 -138 62 -196 52
-57 93 -73 186 -69 85 4 100 7 131 34 21 18 26 28 20 50 -10 41 -41 50 -93 26
-65 -29 -128 -16 -166 34 -57 74 -35 177 45 209 54 21 64 21 116 -10 l46 -27
26 20 c39 29 39 56 0 86 -51 39 -147 58 -198 40z"/>
<path d="M1065 1292 c-11 -3 -23 -9 -27 -15 -4 -7 -7 -105 -6 -219 0 -191 2
-209 18 -218 26 -14 56 -12 68 3 6 6 11 35 13 62 3 65 7 75 29 75 11 0 37 -27
66 -67 26 -38 53 -71 58 -76 6 -4 29 -6 51 -5 37 3 40 5 38 32 -1 16 -20 55
-41 88 l-39 59 34 34 c33 33 37 47 35 129 -1 42 -27 77 -75 103 -28 14 -176
24 -222 15z m185 -132 c21 -39 -12 -70 -76 -70 -37 0 -49 21 -42 76 6 51 90
47 118 -6z"/>
<path d="M1450 1292 c-8 -3 -17 -9 -20 -13 -3 -5 -6 -103 -5 -219 0 -228 1
-233 55 -228 50 4 50 7 50 234 0 117 -4 215 -8 218 -14 9 -56 13 -72 8z"/>
<path d="M1740 1289 c-55 -16 -113 -61 -140 -109 -21 -37 -25 -58 -25 -121 0
-67 4 -81 30 -125 57 -91 170 -128 292 -95 61 17 86 40 78 73 -12 48 -28 53
-96 31 -45 -15 -71 -18 -97 -12 -119 27 -138 200 -28 253 46 22 68 20 125 -9
l49 -24 27 20 c37 30 29 58 -26 92 -52 32 -131 43 -189 26z"/>
<path d="M2046 1286 c-12 -9 -16 -52 -19 -201 -2 -104 0 -205 5 -223 8 -31 11
-33 49 -30 22 1 43 6 46 11 3 4 7 36 9 69 4 62 16 88 39 88 8 0 37 -38 65 -84
l51 -84 42 2 c70 3 72 9 31 87 -20 38 -54 89 -76 114 -24 28 -37 49 -32 57 4
7 33 45 64 83 63 78 82 109 73 119 -3 3 -27 6 -52 6 -54 -1 -65 -9 -140 -102
-30 -38 -57 -66 -60 -63 -3 3 -6 35 -6 71 -1 35 -6 69 -12 75 -15 15 -61 18
-77 5z"/>
<path d="M2445 1287 c-19 -10 -22 -429 -3 -445 14 -10 279 -16 311 -6 18 6 25
68 8 78 -5 3 -53 9 -107 12 -55 4 -100 7 -101 8 -8 6 -9 67 0 73 6 4 46 7 90
8 43 1 83 7 88 12 6 6 9 26 7 44 l-3 34 -95 5 -95 5 0 40 0 40 98 5 c99 5 117
13 117 50 0 40 -14 43 -160 44 -78 1 -148 -2 -155 -7z"/>
<path d="M2822 1292 c-20 -3 -23 -8 -20 -45 l3 -42 51 -3 c41 -2 53 -7 57 -22
3 -10 4 -88 4 -172 0 -85 2 -158 5 -164 9 -14 68 -16 84 -3 11 9 14 47 14 169
0 87 3 165 6 174 4 12 20 16 55 16 42 0 51 3 58 22 8 22 3 67 -8 69 -17 3
-289 4 -309 1z"/>
<path d="M3355 1290 c-21 -4 -29 -11 -27 -23 1 -9 30 -103 63 -209 60 -193 78
-228 118 -228 34 0 49 27 79 137 17 62 35 120 40 129 7 12 18 -19 42 -115 23
-94 38 -134 50 -141 23 -12 68 -9 80 5 17 21 142 426 136 441 -5 13 -15 15
-47 11 -23 -3 -45 -9 -50 -14 -5 -5 -23 -59 -40 -119 -38 -137 -38 -138 -45
-132 -3 3 -18 59 -34 123 -16 65 -33 122 -39 128 -5 5 -26 10 -46 12 -47 3
-55 -10 -91 -140 -15 -55 -30 -103 -34 -108 -6 -7 -17 22 -59 169 -23 77 -34
86 -96 74z"/>
<path d="M4089 1287 c-59 -22 -107 -66 -135 -123 -23 -46 -26 -64 -21 -113 12
-136 103 -222 237 -222 106 -1 203 73 225 171 18 76 -7 174 -58 228 -56 60
-170 87 -248 59z m138 -107 c46 -28 67 -73 60 -131 -3 -26 -11 -56 -17 -66
-47 -74 -160 -77 -203 -4 -42 72 -25 154 42 198 42 28 76 29 118 3z"/>
<path d="M4475 1293 c-11 -3 -24 -9 -29 -14 -10 -9 -12 -426 -2 -436 10 -10
57 -15 83 -8 21 5 23 11 23 75 0 63 2 70 19 70 13 0 38 -23 67 -62 59 -79 70
-88 109 -88 64 0 64 33 -1 122 -33 47 -34 49 -18 73 9 14 20 25 24 25 5 0 13
14 19 31 26 76 1 158 -58 193 -23 13 -56 19 -124 21 -50 1 -101 0 -112 -2z
m176 -119 c47 -43 3 -91 -78 -86 -20 2 -23 8 -23 41 0 60 7 70 46 66 20 -2 44
-11 55 -21z"/>
<path d="M4854 1289 c-10 -16 -17 -418 -9 -442 5 -12 30 -15 155 -13 82 0 151
4 155 7 3 4 8 19 11 34 8 47 -8 55 -117 55 -87 0 -99 2 -99 18 -1 9 -1 85 -2
168 0 84 -4 157 -8 163 -11 18 -76 26 -86 10z"/>
<path d="M5209 1284 c-17 -20 -19 -417 -2 -440 18 -25 211 -16 268 14 78 39
118 108 118 202 0 93 -51 173 -136 210 -57 25 -230 35 -248 14z m182 -95 c101
-34 129 -146 55 -224 -30 -31 -39 -35 -85 -35 l-51 0 -1 105 c-1 58 -1 114 -1
125 0 11 0 25 1 30 1 13 40 13 82 -1z"/>
<path d="M5950 1297 c-3 -3 -18 -8 -32 -11 -51 -9 -115 -63 -143 -120 -55
-112 -12 -260 90 -314 42 -22 185 -25 233 -5 61 25 69 37 49 78 -19 39 -29 42
-80 20 -48 -20 -112 -19 -148 2 -36 21 -58 75 -53 131 9 103 108 154 192 97
45 -31 53 -31 80 -2 37 40 26 65 -47 102 -33 17 -131 32 -141 22z"/>
<path d="M6230 1292 c-8 -3 -17 -9 -20 -13 -3 -5 -6 -80 -5 -166 0 -154 1
-159 27 -204 33 -57 87 -82 167 -80 147 4 189 74 186 310 -1 115 -4 135 -19
146 -9 7 -25 12 -34 10 -9 -2 -24 -4 -33 -4 -9 -1 -16 -7 -16 -13 -1 -7 -4
-75 -7 -150 -7 -175 -17 -198 -89 -198 -31 0 -40 5 -57 33 -17 28 -20 50 -20
174 0 89 -4 144 -11 148 -14 9 -51 13 -69 7z"/>
<path d="M6654 1285 c-12 -8 -15 -52 -18 -223 -3 -235 -4 -232 61 -232 42 0
53 17 53 81 0 32 4 61 10 64 5 3 33 8 61 11 101 10 149 60 149 153 0 73 -28
118 -90 143 -34 14 -209 16 -226 3z m191 -109 c41 -41 12 -96 -51 -96 -37 0
-44 12 -44 76 0 44 0 44 35 44 25 0 44 -8 60 -24z"/>
<path d="M4160 648 c-86 -14 -140 -32 -152 -51 -4 -7 -8 -42 -8 -78 0 -79 10
-87 79 -65 62 21 150 33 185 26 40 -7 68 -47 58 -82 -11 -40 -52 -81 -178
-174 -64 -48 -118 -94 -122 -103 -10 -26 -7 -90 6 -103 12 -12 493 -15 512 -3
15 9 13 150 -3 163 -9 8 -38 7 -100 -2 -48 -7 -90 -10 -92 -6 -3 4 12 20 33
36 90 68 134 141 138 227 3 75 -9 108 -55 150 -64 57 -187 84 -301 65z"/>
<path d="M4848 649 c-58 -9 -143 -50 -186 -92 -96 -91 -124 -266 -62 -388 98
-192 413 -229 553 -65 69 81 95 198 70 309 -37 165 -192 262 -375 236z m128
-176 c41 -26 57 -63 59 -132 2 -89 -9 -123 -50 -160 -65 -57 -166 -33 -207 49
-41 80 -11 212 53 242 64 30 102 30 145 1z"/>
<path d="M5432 648 c-68 -7 -129 -24 -149 -41 -16 -12 -18 -148 -2 -164 7 -7
29 -3 73 13 76 27 138 35 183 22 43 -12 56 -42 40 -93 -12 -41 -60 -86 -210
-193 -66 -48 -87 -69 -88 -88 -1 -13 -2 -30 -3 -36 -4 -25 11 -51 30 -55 18
-2 402 -6 451 -4 38 2 53 27 53 89 0 82 -4 86 -91 78 -41 -3 -87 -8 -104 -11
l-30 -5 26 22 c14 13 46 39 70 59 82 67 121 189 88 276 -13 35 -65 89 -103
109 -50 24 -142 33 -234 22z"/>
<path d="M6055 653 c-75 -12 -186 -37 -190 -43 -3 -5 -8 -40 -11 -79 -8 -86
-3 -90 91 -66 144 36 220 32 231 -11 12 -47 -20 -62 -138 -63 -74 -1 -75 -2
-82 -78 -7 -65 -1 -68 119 -65 87 2 106 0 111 -13 10 -25 -4 -61 -28 -72 -31
-14 -143 -8 -197 11 -81 29 -87 25 -90 -65 -1 -40 2 -59 14 -69 43 -36 259
-48 353 -20 137 42 193 197 107 295 -35 39 -43 55 -26 55 20 0 52 61 55 104 8
108 -80 170 -254 179 -25 2 -54 2 -65 0z"/>
<path d="M1171 623 c-11 -23 -5 -593 7 -605 16 -16 145 -11 157 6 12 16 21
355 16 574 l-1 42 -85 0 c-70 0 -86 -3 -94 -17z"/>
<path d="M1425 630 c-4 -6 14 -39 39 -75 25 -35 46 -72 46 -82 0 -10 -20 -115
-45 -233 -25 -120 -41 -218 -36 -223 4 -4 43 -9 86 -9 96 -1 100 4 109 110 7
78 23 186 32 211 3 9 15 0 37 -29 78 -103 209 -264 225 -276 21 -17 118 -18
128 -2 4 6 9 97 10 202 2 105 5 236 8 291 2 59 0 105 -6 113 -7 7 -37 12 -84
12 -96 0 -97 -2 -90 -172 7 -154 16 -156 -114 22 -46 63 -93 123 -104 132 -17
14 -42 18 -128 18 -62 0 -109 -4 -113 -10z"/>
<path d="M2162 634 c-19 -9 -17 -598 3 -614 16 -13 247 -16 333 -4 179 24 295
147 293 312 -1 73 -7 106 -31 151 -35 69 -115 126 -205 147 -38 8 -375 15
-393 8z m361 -171 c66 -39 95 -137 63 -214 -26 -63 -72 -89 -166 -96 -46 -3
-70 -1 -75 7 -6 9 -9 190 -6 309 1 24 2 24 76 18 47 -3 88 -13 108 -24z"/>
<path d="M2863 632 c-17 -11 -15 -598 2 -612 17 -14 143 -16 156 -3 7 7 12
115 15 308 4 240 3 300 -8 306 -16 11 -149 11 -165 1z"/>
<path d="M3273 629 c-8 -8 -8 -21 3 -51 8 -22 14 -48 14 -57 0 -9 -47 -125
-104 -256 -57 -132 -101 -244 -96 -248 4 -5 42 -9 83 -9 75 -1 107 10 107 36
0 6 9 22 19 35 17 22 25 24 144 27 l127 3 23 -47 22 -47 90 0 c83 0 90 2 92
20 1 11 -50 150 -115 310 l-117 290 -140 3 c-95 2 -144 -1 -152 -9z m218 -288
c23 -75 19 -80 -50 -79 -51 1 -76 14 -62 32 4 6 18 38 30 70 12 33 25 64 28
69 10 16 32 -23 54 -92z"/>
</g>
</svg>
